<svg xmlns="http://www.w3.org/2000/svg" viewBox="0 0 400 300" width="406" height="306" class="illustration styles_illustrationTablet__1DWOa"><g id="_562_money_transfer_flatline" data-name="#562_money_transfer_flatline"><rect x="213.05" y="100.12" width="138.63" height="148.67" fill="#fff" data-darkreader-inline-fill="" style="--darkreader-inline-fill:#f4f2ee;"></rect><path d="M351.68,249.29H213.05a.5.5,0,0,1-.5-.5V100.12a.5.5,0,0,1,.5-.5H351.68a.5.5,0,0,1,.5.5V248.79A.5.5,0,0,1,351.68,249.29Zm-138.13-1H351.18V100.62H213.55Z" fill="#231f20" data-darkreader-inline-fill="" style="--darkreader-inline-fill:#ded9d4;"></path><rect x="213.05" y="100.12" width="138.63" height="16.46" fill="#fff" data-darkreader-inline-fill="" style="--darkreader-inline-fill:#f4f2ee;"></rect><path d="M351.68,117.08H213.05a.5.5,0,0,1-.5-.5V100.12a.5.5,0,0,1,.5-.5H351.68a.5.5,0,0,1,.5.5v16.46A.5.5,0,0,1,351.68,117.08Zm-138.13-1H351.18V100.62H213.55Z" fill="#231f20" data-darkreader-inline-fill="" style="--darkreader-inline-fill:#ded9d4;"></path><circle cx="220.46" cy="108.07" r="2.11" fill="#68e1fd" data-darkreader-inline-fill="" style="--darkreader-inline-fill:#68ebff;"></circle><circle cx="228.04" cy="108.07" r="2.11" fill="#d1d3d4" data-darkreader-inline-fill="" style="--darkreader-inline-fill:#d6d1cb;"></circle><circle cx="235.62" cy="108.07" r="2.11" fill="#d1d3d4" data-darkreader-inline-fill="" style="--darkreader-inline-fill:#d6d1cb;"></circle><path d="M273.62,181.35s-30.91,4.41-35.06,0-13.66-29.57-13.66-29.57l-11,9.08s8.26,47.1,22.27,46.85S281.56,196,281.56,196Z" fill="#fff" data-darkreader-inline-fill="" style="--darkreader-inline-fill:#f4f2ee;"></path><path d="M236.05,208.21c-14.2,0-22.31-45.33-22.65-47.27a.53.53,0,0,1,.17-.47l11-9.08a.52.52,0,0,1,.45-.1.55.55,0,0,1,.34.31c.09.25,9.52,25.12,13.55,29.41,3.26,3.45,26.1,1.06,34.63-.16a.52.52,0,0,1,.51.26L282,195.72a.49.49,0,0,1-.26.7c-.32.12-31.64,11.54-45.57,11.79Zm-21.61-47.15c.72,3.91,8.8,46.15,21.6,46.15h.11c12.76-.23,40.46-10,44.7-11.53l-7.5-13.79c-1.6.22-8.47,1.13-15.67,1.61-11.1.74-17.66.13-19.49-1.81-3.84-4.08-11.95-25-13.51-29.08Z" fill="#231f20" data-darkreader-inline-fill="" style="--darkreader-inline-fill:#ded9d4;"></path><rect x="52.32" y="47.2" width="138.63" height="148.67" fill="#fff" data-darkreader-inline-fill="" style="--darkreader-inline-fill:#f4f2ee;"></rect><path d="M191,196.38H52.32a.5.5,0,0,1-.5-.5V47.21a.5.5,0,0,1,.5-.5H191a.5.5,0,0,1,.5.5V195.88A.5.5,0,0,1,191,196.38Zm-138.13-1H190.45V47.71H52.82Z" fill="#231f20" data-darkreader-inline-fill="" style="--darkreader-inline-fill:#ded9d4;"></path><rect x="52.32" y="47.2" width="138.63" height="16.46" fill="#fff" data-darkreader-inline-fill="" style="--darkreader-inline-fill:#f4f2ee;"></rect><path d="M191,64.17H52.32a.51.51,0,0,1-.5-.5V47.21a.5.5,0,0,1,.5-.5H191a.5.5,0,0,1,.5.5V63.67A.5.5,0,0,1,191,64.17Zm-138.13-1H190.45V47.71H52.82Z" fill="#231f20" data-darkreader-inline-fill="" style="--darkreader-inline-fill:#ded9d4;"></path><circle cx="59.73" cy="55.15" r="2.11" fill="#68e1fd" data-darkreader-inline-fill="" style="--darkreader-inline-fill:#68ebff;"></circle><circle cx="67.31" cy="55.15" r="2.11" fill="#d1d3d4" data-darkreader-inline-fill="" style="--darkreader-inline-fill:#d6d1cb;"></circle><circle cx="74.89" cy="55.15" r="2.11" fill="#d1d3d4" data-darkreader-inline-fill="" style="--darkreader-inline-fill:#d6d1cb;"></circle><polygon points="89.24 178.89 85.98 195.88 138.91 195.88 136 187.25 89.24 178.89" fill="#231f20" data-darkreader-inline-fill="" style="--darkreader-inline-fill:#ded9d4;"></polygon><path d="M138.91,196.38H86a.49.49,0,0,1-.38-.18.48.48,0,0,1-.11-.41l3.26-17a.5.5,0,0,1,.58-.4l46.75,8.36a.51.51,0,0,1,.39.33l2.91,8.63a.5.5,0,0,1-.47.66Zm-52.32-1h51.62l-2.59-7.69-46-8.22Z" fill="#231f20" data-darkreader-inline-fill="" style="--darkreader-inline-fill:#ded9d4;"></path><polygon points="156.69 130.8 186.71 166.97 173.49 172.38 141.33 138.16 156.69 130.8" fill="#fff" data-darkreader-inline-fill="" style="--darkreader-inline-fill:#f4f2ee;"></polygon><path d="M173.49,172.88a.48.48,0,0,1-.36-.16L141,138.5a.48.48,0,0,1-.13-.43.49.49,0,0,1,.28-.36l15.36-7.36a.5.5,0,0,1,.6.13l30,36.17a.49.49,0,0,1,.1.44.51.51,0,0,1-.3.34l-13.21,5.41A.41.41,0,0,1,173.49,172.88Zm-31.32-34.56,31.45,33.47,12.27-5-29.33-35.34Z" fill="#231f20" data-darkreader-inline-fill="" style="--darkreader-inline-fill:#ded9d4;"></path><polygon points="147.67 111.95 162.88 131.77 142.15 143.14 147.67 111.95" fill="#68e1fd" data-darkreader-inline-fill="" style="--darkreader-inline-fill:#68ebff;"></polygon><path d="M147.67,112c-1.27-2-30.11-11.08-39.57-4.42S88.61,165.74,86,181.68l57.64,14.82S154.66,123.25,147.67,112Z" fill="#68e1fd" data-darkreader-inline-fill="" style="--darkreader-inline-fill:#68ebff;"></path><path d="M146.47,183.58h-.06A.5.5,0,0,1,146,183c.05-.45,5.16-45,3.51-56.16a.5.5,0,1,1,1-.15c1.67,11.31-3.29,54.59-3.5,56.42A.51.51,0,0,1,146.47,183.58Z" fill="#231f20" data-darkreader-inline-fill="" style="--darkreader-inline-fill:#ded9d4;"></path><path d="M131.69,99.53a18.08,18.08,0,0,1-8.29-5.1,7.33,7.33,0,0,1-2-3.88,3.43,3.43,0,0,1,2-3.6,5.12,5.12,0,0,1-2.24-4.11,9,9,0,0,1,1.23-4.65c1-1.86,2.65-3.63,4.75-3.69-.76-1.64-1.52-3.54-.77-5.18a5.59,5.59,0,0,1,1.8-2,28.44,28.44,0,0,1,4.49-2.86c.85-.43,1.93-.81,2.69-.24a9.23,9.23,0,0,1,7.19-6.55,7.68,7.68,0,0,1,4.95.64,30.26,30.26,0,0,1,4,3.53c2.45-.71,6.34,0,8.15,1.81a6.34,6.34,0,0,1,1.44,6.3,14,14,0,0,1,4.47,4,6.8,6.8,0,0,1,1,5.75A4.55,4.55,0,0,1,162,82.9a4.84,4.84,0,0,1,.2,6.39,5.91,5.91,0,0,1-6.42,1.56,2.16,2.16,0,0,0-1-.21,2.6,2.6,0,0,0-1,.62c-1,.79-2.3.52-3.41,1a31.68,31.68,0,0,0-4.27,3,49.51,49.51,0,0,1-4.3,2.59c-1.63.88-3.18,2.22-5,2.75-1.6.47-2.48-.23-4-.7Z" fill="#fff" data-darkreader-inline-fill="" style="--darkreader-inline-fill:#f4f2ee;"></path><path d="M135.78,101.24a5.56,5.56,0,0,1-2.13-.52c-.31-.11-.63-.24-1-.35l-1.14-.37h0a18.75,18.75,0,0,1-8.5-5.24,7.58,7.58,0,0,1-2.11-4.16,4.17,4.17,0,0,1,1.54-3.72,5.88,5.88,0,0,1-1.81-4A9.51,9.51,0,0,1,121.94,78c.56-1.06,2.07-3.4,4.45-3.87-.69-1.6-1.22-3.36-.48-5a6.13,6.13,0,0,1,1.94-2.17A30.73,30.73,0,0,1,132.42,64a3.85,3.85,0,0,1,2.6-.5,9.74,9.74,0,0,1,7.42-6.33,8.14,8.14,0,0,1,5.26.68,36.54,36.54,0,0,1,4,3.42c2.51-.59,6.41.05,8.33,2a6.88,6.88,0,0,1,1.68,6.43,13.76,13.76,0,0,1,4.3,3.94A7.27,7.27,0,0,1,167,79.88a5.23,5.23,0,0,1-4,3.5,5.42,5.42,0,0,1-.45,6.23,6.35,6.35,0,0,1-7,1.71l-.11,0a1.56,1.56,0,0,0-.61-.14,1.39,1.39,0,0,0-.6.36l-.2.16a4.49,4.49,0,0,1-2.18.75,4.63,4.63,0,0,0-1.33.33,15.24,15.24,0,0,0-2.83,1.9c-.47.36-.93.71-1.37,1A44.64,44.64,0,0,1,142,98.27c-.53.3-1.06.64-1.61,1a13.67,13.67,0,0,1-3.45,1.8A4.28,4.28,0,0,1,135.78,101.24Zm-1.37-36.79a3.58,3.58,0,0,0-1.53.47,28.72,28.72,0,0,0-4.42,2.81,5.38,5.38,0,0,0-1.65,1.8c-.66,1.43.06,3.21.78,4.75a.51.51,0,0,1,0,.48.54.54,0,0,1-.41.24c-2.29.06-3.79,2.41-4.33,3.42a8.6,8.6,0,0,0-1.17,4.39,4.64,4.64,0,0,0,2,3.72.49.49,0,0,1-.09.89,2.93,2.93,0,0,0-1.65,3.08,6.67,6.67,0,0,0,1.87,3.6,17.65,17.65,0,0,0,8.07,5h0c.36.13.74.25,1.12.37s.72.25,1,.37a3.62,3.62,0,0,0,2.65.32,12.64,12.64,0,0,0,3.18-1.68c.55-.35,1.11-.72,1.69-1a47.93,47.93,0,0,0,4.25-2.56c.43-.3.87-.64,1.33-1a16.24,16.24,0,0,1,3-2,5.72,5.72,0,0,1,1.6-.41,3.51,3.51,0,0,0,1.72-.56l.19-.14a2.12,2.12,0,0,1,1.09-.57,2.22,2.22,0,0,1,1.09.19l.1,0A5.43,5.43,0,0,0,161.79,89a4.37,4.37,0,0,0-.16-5.71.49.49,0,0,1-.11-.57.5.5,0,0,1,.51-.29,4,4,0,0,0,4.05-2.84,6.26,6.26,0,0,0-.94-5.32,13.34,13.34,0,0,0-4.31-3.84.5.5,0,0,1-.21-.59A5.87,5.87,0,0,0,159.29,64c-1.7-1.75-5.44-2.33-7.64-1.68h0A.5.5,0,0,1,151,62a38.6,38.6,0,0,0-3.78-3.26,7.06,7.06,0,0,0-4.62-.6,8.74,8.74,0,0,0-6.8,6.18.51.51,0,0,1-.32.35.49.49,0,0,1-.47-.07A1.07,1.07,0,0,0,134.41,64.45Z" fill="#231f20" data-darkreader-inline-fill="" style="--darkreader-inline-fill:#ded9d4;"></path><path d="M154.69,91.91s2.25,8,.92,9-4-.78-4-.78" fill="#fff" data-darkreader-inline-fill="" style="--darkreader-inline-fill:#f4f2ee;"></path><path d="M154.54,101.79a6.87,6.87,0,0,1-3.26-1.2.51.51,0,0,1-.12-.7.5.5,0,0,1,.69-.13c.62.43,2.59,1.49,3.44.8.65-.52,0-4.82-1.08-8.52a.51.51,0,0,1,.34-.62.51.51,0,0,1,.62.35c.55,1.94,2.23,8.38.75,9.57A2.1,2.1,0,0,1,154.54,101.79Z" fill="#231f20" data-darkreader-inline-fill="" style="--darkreader-inline-fill:#ded9d4;"></path><path d="M157.87,77.08a2.11,2.11,0,0,1,.58,1.33,14.3,14.3,0,0,1-.34,5.25,83.51,83.51,0,0,1-2.87,10q-2.15,6.54-4.58,13c-1,2.72-8.23.5-9.23-.73l-2.37,11.3s-3.74-.15-8.68-4.67-4.55-5.91-4.55-5.91l4.5-12.49s4.73,1.54,9.34-3.21c.73-.76,1.35-2.12,2.21-2.69,1.05-.71,2.26-.54,3.2-1.6A4.23,4.23,0,0,0,146,83c-.06-.28-.13-.62.08-.81a.82.82,0,0,1,.47-.15,3.58,3.58,0,0,0,2.9-4.18c1.81.58,3.6-.86,5-2.18-.43.42,2.79,1,2.84,1A2.06,2.06,0,0,1,157.87,77.08Z" fill="#fff" data-darkreader-inline-fill="" style="--darkreader-inline-fill:#f4f2ee;"></path><path d="M139.06,117.73h0c-.16,0-4-.21-9-4.81-4.79-4.39-4.81-6-4.7-6.41L129.86,94a.5.5,0,0,1,.63-.31c.18.06,4.5,1.37,8.82-3.08a8.12,8.12,0,0,0,.8-1.06,6.51,6.51,0,0,1,1.49-1.7,5.53,5.53,0,0,1,1.48-.64,3.14,3.14,0,0,0,1.63-.87,3.73,3.73,0,0,0,.83-3.22,1.25,1.25,0,0,1,.24-1.29,1.17,1.17,0,0,1,.7-.27,2.91,2.91,0,0,0,2-1.28A2.84,2.84,0,0,0,149,78a.5.5,0,0,1,.15-.48.47.47,0,0,1,.49-.11c1.56.49,3.21-.85,4.47-2.07h0a.5.5,0,0,1,.71,0,.6.6,0,0,1,.13.25,12.86,12.86,0,0,0,2.31.63l.23.06a2.56,2.56,0,0,1,.73.43h0a2.67,2.67,0,0,1,.73,1.61,14.63,14.63,0,0,1-.34,5.44A74.13,74.13,0,0,1,156,92.88l-.32,1c-1.42,4.35-3,8.73-4.58,13a2.57,2.57,0,0,1-2.23,1.54,12.76,12.76,0,0,1-7.15-1.57l-2.2,10.53A.49.49,0,0,1,139.06,117.73ZM126.3,106.81s.13,1.44,4.42,5.38c3.79,3.47,6.87,4.3,7.95,4.49l2.27-10.86a.5.5,0,0,1,.88-.21c.57.7,4.44,2.18,6.92,1.78a1.66,1.66,0,0,0,1.45-.91c1.62-4.26,3.16-8.63,4.57-13l.32-1a74.19,74.19,0,0,0,2.54-9,14,14,0,0,0,.34-5,1.82,1.82,0,0,0-.42-1.06,1.6,1.6,0,0,0-.44-.25H157a11.74,11.74,0,0,1-2.65-.77c-1.22,1.12-2.73,2.19-4.33,2.06a4.08,4.08,0,0,1-.75,2.36,3.89,3.89,0,0,1-2.67,1.7l-.22,0a1.18,1.18,0,0,1,.1.33A4.69,4.69,0,0,1,145.45,87a4.1,4.1,0,0,1-2.07,1.17,4.26,4.26,0,0,0-1.22.51,5.8,5.8,0,0,0-1.22,1.44,9.41,9.41,0,0,1-.91,1.18c-4,4.1-8,3.73-9.38,3.46l-4.35,12.06Z" fill="#231f20" data-darkreader-inline-fill="" style="--darkreader-inline-fill:#ded9d4;"></path><path d="M143.29,89.55a6.16,6.16,0,0,0-.26-3.39,9.18,9.18,0,0,0-1-2.49A3,3,0,0,0,140,82.2a2.8,2.8,0,0,0-2.15.81,5.26,5.26,0,0,0-1.24,2,9.83,9.83,0,0,0,1.68,9.7l-.16-.34" fill="#fff" data-darkreader-inline-fill="" style="--darkreader-inline-fill:#f4f2ee;"></path><path d="M138.24,95.21a.49.49,0,0,1-.38-.18,10.41,10.41,0,0,1-1.77-10.2,5.75,5.75,0,0,1,1.37-2.18,3.25,3.25,0,0,1,2.54-.94,3.48,3.48,0,0,1,2.5,1.69,9.69,9.69,0,0,1,1,2.63,6.63,6.63,0,0,1,.26,3.67.5.5,0,0,1-1-.29,5.92,5.92,0,0,0-.28-3.12,8.65,8.65,0,0,0-.89-2.35,2.53,2.53,0,0,0-1.76-1.24,2.29,2.29,0,0,0-1.75.68A4.75,4.75,0,0,0,137,85.19a9.41,9.41,0,0,0,1.2,8.71.48.48,0,0,1,.3.26l.16.34a.5.5,0,0,1-.18.63A.53.53,0,0,1,138.24,95.21Z" fill="#231f20" data-darkreader-inline-fill="" style="--darkreader-inline-fill:#ded9d4;"></path><path d="M141.43,105.93s-3.35-2.34-4.27-5.45c0,0-1.88,6.74,3.21,10.48Z" fill="#231f20" data-darkreader-inline-fill="" style="--darkreader-inline-fill:#ded9d4;"></path><path d="M140.37,111.46a.52.52,0,0,1-.29-.09c-5.31-3.91-3.42-11-3.41-11a.5.5,0,0,1,.48-.37h0a.51.51,0,0,1,.48.36c.85,2.89,4,5.15,4.08,5.18a.5.5,0,0,1,.2.51l-1.06,5a.49.49,0,0,1-.31.37A.52.52,0,0,1,140.37,111.46Zm-3-9.21a9.22,9.22,0,0,0,2.67,7.81l.82-3.92A13.93,13.93,0,0,1,137.38,102.25Z" fill="#231f20" data-darkreader-inline-fill="" style="--darkreader-inline-fill:#ded9d4;"></path><ellipse cx="152.67" cy="87.24" rx="1.64" ry="0.64" transform="matrix(0.34, -0.94, 0.94, 0.34, 18.85, 201.32)" fill="#231f20" data-darkreader-inline-fill="" style="--darkreader-inline-fill:#ded9d4;"></ellipse><path d="M151.57,100.17l-4.28-3.4s-3.31,5.41-1.67,8.26S150.5,103,151.57,100.17Z" fill="#fff" data-darkreader-inline-fill="" style="--darkreader-inline-fill:#f4f2ee;"></path><path d="M146.85,106.4a1.89,1.89,0,0,1-1.67-1.12c-1.76-3.07,1.54-8.54,1.69-8.77a.49.49,0,0,1,.34-.23.47.47,0,0,1,.39.1l4.28,3.4a.52.52,0,0,1,.16.57c-.69,1.82-2.9,5.87-5,6Zm.59-8.87c-.74,1.35-2.59,5.16-1.39,7.26.33.58.65.62.86.61,1.2-.1,3.1-2.73,4.06-5.06Z" fill="#231f20" data-darkreader-inline-fill="" style="--darkreader-inline-fill:#ded9d4;"></path><rect x="153.3" y="114.5" width="65.11" height="123.89" transform="translate(212.78 -78.4) rotate(52.52)" fill="#fff" data-darkreader-inline-fill="" style="--darkreader-inline-fill:#f4f2ee;"></rect><path d="M156.5,240.47a.49.49,0,0,1-.39-.2l-39.62-51.66a.5.5,0,0,1-.1-.37.55.55,0,0,1,.19-.34l98.31-75.38a.49.49,0,0,1,.7.09l39.62,51.67a.49.49,0,0,1,.1.37.53.53,0,0,1-.19.33l-98.31,75.38A.51.51,0,0,1,156.5,240.47Zm-38.91-52.08,39,50.88,97.51-74.78-39-50.87Z" fill="#231f20" data-darkreader-inline-fill="" style="--darkreader-inline-fill:#ded9d4;"></path><path d="M164.87,224.06h-.09a.45.45,0,0,1-.33-.22l-.22-.3a10,10,0,0,0-14-1.85.49.49,0,0,1-.7-.09l-16.69-21.77a.5.5,0,0,1,.09-.7,10,10,0,0,0,1.85-14,3.25,3.25,0,0,0-.23-.29.45.45,0,0,1-.13-.38.48.48,0,0,1,.19-.35l71.94-55.16a.48.48,0,0,1,.72.13l.21.29a10,10,0,0,0,14,1.86.55.55,0,0,1,.37-.1.53.53,0,0,1,.33.19l16.69,21.77a.5.5,0,0,1-.09.7,10,10,0,0,0-1.85,14l.24.29a.46.46,0,0,1,.13.38.52.52,0,0,1-.19.36L165.17,224A.47.47,0,0,1,164.87,224.06Zm-8.58-5.44a11,11,0,0,1,8.68,4.23l71.12-54.53a11,11,0,0,1,1.69-15l-16.09-21A11,11,0,0,1,206.74,130l-71.13,54.54a11,11,0,0,1-1.69,15l16.09,21A11,11,0,0,1,156.29,218.62Z" fill="#d1d3d4" data-darkreader-inline-fill="" style="--darkreader-inline-fill:#d6d1cb;"></path><path d="M133.32,141.44s30.54,37.31,36.06,38.64,14.62-.3,14,2.62-9.42,2.93-9.42,2.93,10.78,4.7,9.45,7.87-6.42,5.76-11,3.81-7.11-5.37-11.09-7.32S120,153.47,120,153.47Z" fill="#fff" data-darkreader-inline-fill="" style="--darkreader-inline-fill:#f4f2ee;"></path><path d="M175.73,198.49a8.9,8.9,0,0,1-3.52-.72,27.59,27.59,0,0,1-6.28-4.05,26.87,26.87,0,0,0-4.83-3.28c-4-2-39.92-35.19-41.45-36.61a.51.51,0,0,1-.16-.37.5.5,0,0,1,.17-.37l13.32-12a.51.51,0,0,1,.72.06c8.47,10.34,31.4,37.41,35.8,38.46a37.15,37.15,0,0,0,7.15.64c3.37.09,6,.16,6.92,1.29a1.53,1.53,0,0,1,.27,1.29c-.53,2.35-5.05,3-7.83,3.24,3.3,1.62,9,4.89,7.83,7.65a8.11,8.11,0,0,1-4.51,4.07A9.55,9.55,0,0,1,175.73,198.49Zm-55-45c4,3.74,37.17,34.28,40.81,36.07a28.39,28.39,0,0,1,5,3.39,26,26,0,0,0,6.06,3.92,8.22,8.22,0,0,0,6.35,0,7.13,7.13,0,0,0,4-3.54c.79-1.88-4.9-5.35-9.19-7.22a.5.5,0,0,1-.29-.56.49.49,0,0,1,.49-.4c3.23,0,8.52-.69,8.93-2.53a.5.5,0,0,0-.07-.46c-.6-.77-3.43-.84-6.16-.91a38.12,38.12,0,0,1-7.37-.67c-5.37-1.28-32.49-34.12-36-38.39Z" fill="#231f20" data-darkreader-inline-fill="" style="--darkreader-inline-fill:#ded9d4;"></path><polyline points="123.03 122.57 135.57 139.03 117.72 155.49 107 143.14" fill="#68e1fd" data-darkreader-inline-fill="" style="--darkreader-inline-fill:#68ebff;"></polyline><path d="M117.72,156h0a.51.51,0,0,1-.35-.17l-10.72-12.35a.5.5,0,0,1,0-.7.5.5,0,0,1,.71,0l10.38,12L134.9,139l-12.27-16.1a.5.5,0,0,1,.8-.61L136,138.72a.52.52,0,0,1-.06.68l-17.85,16.46A.55.55,0,0,1,117.72,156Z" fill="#231f20" data-darkreader-inline-fill="" style="--darkreader-inline-fill:#ded9d4;"></path><path d="M307.65,145a21.73,21.73,0,0,1,8.49,2.34c4.6,2.2,9,5.82,10,10.82.83,4-.71,8.22-2.66,11.87s-4.35,7.13-5.44,11.12-.58,8.79,2.58,11.46c-4.17-1.85-8.42-3.76-11.78-6.84-2-1.81-3.66-4.15-3.85-6.81a13.81,13.81,0,0,1,1.56-6.33c1.28-3,2.65-6.05,2.85-9.3s-1-6.82-3.82-8.46c-2.46-1.44-10.51-1.3-9.25-5.82C297.35,145.46,304.77,144.84,307.65,145Z" fill="#fff" data-darkreader-inline-fill="" style="--darkreader-inline-fill:#f4f2ee;"></path><path d="M320.66,193.06a.45.45,0,0,1-.2,0c-4.16-1.85-8.46-3.76-11.92-6.93-2.45-2.25-3.83-4.72-4-7.15a14.26,14.26,0,0,1,1.6-6.56l.17-.39c1.2-2.81,2.45-5.72,2.64-8.74.22-3.46-1.18-6.6-3.57-8a13.47,13.47,0,0,0-3.15-1c-2.38-.56-5.08-1.2-6.09-2.9a3.14,3.14,0,0,1-.25-2.52c1.1-3.94,8.88-4.53,11.78-4.41a22,22,0,0,1,8.69,2.39c3.32,1.59,9.07,5.15,10.32,11.17.72,3.51-.14,7.39-2.71,12.2-.5.95-1,1.88-1.57,2.82a36.44,36.44,0,0,0-3.83,8.2c-.92,3.33-.83,8.19,2.42,11a.49.49,0,0,1,.1.65A.48.48,0,0,1,320.66,193.06ZM307,145.43c-3.35,0-9.33.84-10.12,3.7a2.13,2.13,0,0,0,.14,1.74c.79,1.34,3.27,1.92,5.46,2.44a13.27,13.27,0,0,1,3.42,1.08c2.72,1.58,4.32,5.09,4.07,8.92-.2,3.2-1.48,6.19-2.73,9.07l-.17.4c-.91,2.14-1.66,4.08-1.51,6.09.2,2.74,2.11,5,3.69,6.48a35.71,35.71,0,0,0,9.53,5.81c-2-3.07-2-7.21-1.16-10.19a37.11,37.11,0,0,1,3.93-8.44c.53-.93,1.06-1.85,1.56-2.79,2.45-4.59,3.28-8.26,2.61-11.53-1.16-5.6-6.62-9-9.77-10.47a21,21,0,0,0-8.29-2.29Z" fill="#231f20" data-darkreader-inline-fill="" style="--darkreader-inline-fill:#ded9d4;"></path><path d="M304.05,146a8.63,8.63,0,0,1,1.06,5.58,6.56,6.56,0,0,1-1.35,3.58,5.06,5.06,0,0,1-4.22,1.67,2.83,2.83,0,0,1-1.9-.77,3.31,3.31,0,0,1-.7-1.6C296.08,150.36,299,138.06,304.05,146Z" fill="#231f20" data-darkreader-inline-fill="" style="--darkreader-inline-fill:#ded9d4;"></path><path d="M299.94,157.31h-.44a3.33,3.33,0,0,1-2.23-.93,3.81,3.81,0,0,1-.82-1.84c-.63-3,.65-10.3,3.56-11.49,1.46-.59,3,.3,4.46,2.66h0a9.16,9.16,0,0,1,1.14,5.91,7.06,7.06,0,0,1-1.46,3.84A5.58,5.58,0,0,1,299.94,157.31Zm.92-13.44a1.17,1.17,0,0,0-.47.1c-2.18.89-3.57,7.5-3,10.36a2.93,2.93,0,0,0,.57,1.36,2.43,2.43,0,0,0,1.58.61,4.57,4.57,0,0,0,3.8-1.49,6.06,6.06,0,0,0,1.24-3.31,8.16,8.16,0,0,0-1-5.26h0C302.91,145.11,301.89,143.87,300.86,143.87Z" fill="#231f20" data-darkreader-inline-fill="" style="--darkreader-inline-fill:#ded9d4;"></path><path d="M277.66,172.52c1.2,1.39,3,2.18,6,1.87a15,15,0,0,0,6.86-2.78,26,26,0,0,0,10.68-25.19c-1.64-9.66-11.28-19.26-21.65-15.55a12.76,12.76,0,0,0-7.61,7.63,3.8,3.8,0,0,0-4,1.05c-2.68,2.68-2.57,5.53-1.13,8.74,2.37,5.27,5.28,10.29,7.41,15.67C275.43,167.1,275.91,170.47,277.66,172.52Z" fill="#fff" data-darkreader-inline-fill="" style="--darkreader-inline-fill:#f4f2ee;"></path><path d="M282.39,175a6.28,6.28,0,0,1-5.11-2.12h0a15.44,15.44,0,0,1-2.51-5.59c-.32-1-.65-2.08-1-3.11-1.25-3.15-2.8-6.23-4.3-9.22-1-2.09-2.13-4.25-3.1-6.42-1.71-3.81-1.32-6.76,1.23-9.31a4.47,4.47,0,0,1,4.09-1.32,13.2,13.2,0,0,1,7.74-7.47,14.29,14.29,0,0,1,12.35,1.3,21.76,21.76,0,0,1,10,14.64A26.67,26.67,0,0,1,290.8,172a15.62,15.62,0,0,1-7.09,2.87A12.18,12.18,0,0,1,282.39,175ZM278,172.19c1.22,1.43,3,2,5.57,1.7a14.46,14.46,0,0,0,6.63-2.7,25.61,25.61,0,0,0,10.47-24.68,20.72,20.72,0,0,0-9.49-13.95,13.36,13.36,0,0,0-11.5-1.22,12.2,12.2,0,0,0-7.31,7.32.51.51,0,0,1-.27.29.47.47,0,0,1-.4,0,3.35,3.35,0,0,0-3.49,1c-2.27,2.27-2.58,4.72-1,8.19,1,2.15,2,4.3,3.09,6.38,1.5,3,3.06,6.12,4.33,9.3.42,1.06.75,2.14,1.07,3.19a15.12,15.12,0,0,0,2.32,5.23Z" fill="#231f20" data-darkreader-inline-fill="" style="--darkreader-inline-fill:#ded9d4;"></path><path d="M269.92,150.22s-6.28,5.36-5.77,7,3.78,1.59,3.78,1.59" fill="#fff" data-darkreader-inline-fill="" style="--darkreader-inline-fill:#f4f2ee;"></path><path d="M267.87,159.3c-.59,0-3.62-.09-4.2-1.94s4.39-6.21,5.92-7.52a.51.51,0,0,1,.71.06.49.49,0,0,1-.06.7c-2.91,2.49-5.86,5.67-5.61,6.46.33,1,2.53,1.26,3.29,1.24h0a.5.5,0,0,1,.5.49.51.51,0,0,1-.49.51Z" fill="#231f20" data-darkreader-inline-fill="" style="--darkreader-inline-fill:#ded9d4;"></path><path d="M266.51,186.31c7.06.54,19.11-6.57,19.2-6.84a142,142,0,0,0,3.15-13.92s-4.78-1.33-6-7.82-7.18-7.47-9.54-16c-3.43,1.47-4,6.5-4.88,9.63q-1.85,6.62-3.38,13.3c-.66,2.82,6.54,5,8,4.49C271.54,173.37,271.54,173.37,266.51,186.31Z" fill="#fff" data-darkreader-inline-fill="" style="--darkreader-inline-fill:#f4f2ee;"></path><path d="M267.25,186.84q-.39,0-.78,0a.5.5,0,0,1-.38-.23.48.48,0,0,1,0-.45c4.71-12.14,5-12.89,6.35-16.4a12.64,12.64,0,0,1-6.8-2.66,2.55,2.55,0,0,1-1-2.51c1-4.44,2.16-8.92,3.39-13.31.14-.52.28-1.1.43-1.71.73-3.09,1.65-6.93,4.74-8.25a.49.49,0,0,1,.41,0,.53.53,0,0,1,.27.32c1.18,4.29,3.27,6.56,5.28,8.76s3.66,4,4.26,7.27c1.11,6.08,5.42,7.38,5.6,7.43a.5.5,0,0,1,.36.57,138.68,138.68,0,0,1-3.17,14C285.94,180.37,274.28,186.84,267.25,186.84Zm0-1c6.46,0,16.82-5.74,18-6.65a133.39,133.39,0,0,0,3-13.31c-1.26-.51-4.86-2.43-5.89-8.06-.54-3-2.15-4.74-4-6.77a21.12,21.12,0,0,1-5.34-8.58c-2.23,1.34-3,4.63-3.65,7.3-.15.62-.29,1.21-.44,1.75-1.22,4.38-2.36,8.84-3.38,13.27a1.67,1.67,0,0,0,.7,1.55c1.84,1.71,5.87,2.62,6.73,2.35a.51.51,0,0,1,.51.14.5.5,0,0,1,.1.52C272,173.48,272,173.55,267.23,185.84Z" fill="#231f20" data-darkreader-inline-fill="" style="--darkreader-inline-fill:#ded9d4;"></path><path d="M266.14,161.43s2.81,3.08,5.63.07" fill="#fff" data-darkreader-inline-fill="" style="--darkreader-inline-fill:#f4f2ee;"></path><path d="M269.1,163.32h0a5.08,5.08,0,0,1-3.3-1.55.5.5,0,0,1,.74-.68,4.06,4.06,0,0,0,2.57,1.23,3.39,3.39,0,0,0,2.33-1.16.5.5,0,1,1,.73.69A4.18,4.18,0,0,1,269.1,163.32Z" fill="#231f20" data-darkreader-inline-fill="" style="--darkreader-inline-fill:#ded9d4;"></path><path d="M273.15,169.17s3.75.89,6.23-1.17c0,0-2.17,6.66-8.46,6.95Z" fill="#231f20" data-darkreader-inline-fill="" style="--darkreader-inline-fill:#ded9d4;"></path><path d="M270.92,175.45a.51.51,0,0,1-.41-.2.54.54,0,0,1-.06-.48l2.24-5.78a.51.51,0,0,1,.58-.31s3.54.81,5.79-1.07a.51.51,0,0,1,.6,0,.5.5,0,0,1,.2.57c0,.07-2.36,7-8.92,7.3Zm2.55-5.71-1.79,4.64c3.61-.52,5.66-3.36,6.59-5.13A9,9,0,0,1,273.47,169.74Z" fill="#231f20" data-darkreader-inline-fill="" style="--darkreader-inline-fill:#ded9d4;"></path><ellipse cx="272.01" cy="148.53" rx="1.63" ry="0.64" transform="translate(70.07 383.62) rotate(-77.97)" fill="#231f20" data-darkreader-inline-fill="" style="--darkreader-inline-fill:#ded9d4;"></ellipse><path d="M278.23,155.05a6.18,6.18,0,0,1,2.1-2.67,9,9,0,0,1,2.16-1.53,3,3,0,0,1,2.58,0,2.79,2.79,0,0,1,1.33,1.85,5.14,5.14,0,0,1-.08,2.34,9.79,9.79,0,0,1-6.75,7.11l.32-.19" fill="#fff" data-darkreader-inline-fill="" style="--darkreader-inline-fill:#f4f2ee;"></path><path d="M279.57,162.61a.49.49,0,0,1-.46-.3.5.5,0,0,1,.2-.62l.32-.2a.49.49,0,0,1,.39-.05,9.34,9.34,0,0,0,5.81-6.55,4.66,4.66,0,0,0,.08-2.11,2.27,2.27,0,0,0-1.08-1.53,2.52,2.52,0,0,0-2.14.06,8.38,8.38,0,0,0-2,1.45,5.86,5.86,0,0,0-2,2.43.51.51,0,0,1-.63.33.5.5,0,0,1-.33-.62A6.65,6.65,0,0,1,280,152a9,9,0,0,1,2.29-1.62,3.45,3.45,0,0,1,3,0,3.3,3.3,0,0,1,1.59,2.19,5.76,5.76,0,0,1-.08,2.56,10.39,10.39,0,0,1-7.11,7.49Z" fill="#231f20" data-darkreader-inline-fill="" style="--darkreader-inline-fill:#ded9d4;"></path><path d="M265.33,181.06s21.4-8.64,28.09-1.1,10.4,25,7.57,62.82L250.93,241S254.93,185.71,265.33,181.06Z" fill="#68e1fd" data-darkreader-inline-fill="" style="--darkreader-inline-fill:#68ebff;"></path><path d="M235.68,192.5c-2.31-2-21.54-27.47-21.79-31.64s-2-11.44-3-10.93-1.5,7.14-1.5,7.14-4.75-8.54-6.75-8.47-6.76,5.6-6.51,8.47,22.27,55.4,32.52,56.9,36.92-10.51,39.35-11,11.33-20,0-22.87C268,180.09,238,194.47,235.68,192.5Z" fill="#fff" data-darkreader-inline-fill="" style="--darkreader-inline-fill:#f4f2ee;"></path><path d="M230.6,214.59a14.09,14.09,0,0,1-2-.13c-10.71-1.56-32.67-54.16-33-57.35-.16-1.89,1.54-4.55,3-6.26.56-.63,2.5-2.7,4-2.75h0c1.79,0,4.77,4.6,6.38,7.34.26-2.5.75-5.52,1.64-6a.74.74,0,0,1,.72,0c1.39.8,2.8,7.92,3,11.32.23,3.83,18.86,28.93,21.61,31.28,1.43,1,17.28-5.52,31.79-12.47a.42.42,0,0,1,.33,0c4,1,6.11,4.18,6,9.11-.15,6.24-4.09,14.34-6,14.74-.5.1-2.34.82-4.68,1.74C255.41,208.32,239.38,214.59,230.6,214.59ZM202.67,149.1h0c-.56,0-1.78.78-3.23,2.41-1.78,2-2.9,4.23-2.79,5.51.29,3.36,22.62,55.07,32.09,56.45,7.85,1.15,25.74-5.85,34.34-9.21,2.56-1,4.26-1.67,4.84-1.79,1.07-.22,5.07-7.35,5.22-13.78.1-4.4-1.6-7.12-5.07-8.07-1.15.55-8.07,3.83-15.15,6.87-15.87,6.82-17.05,5.82-17.55,5.39-2.17-1.86-21.69-27.54-22-32-.23-3.84-1.6-9.37-2.38-10.39-.43.75-.92,3.88-1.12,6.6a.5.5,0,0,1-.94.21C206.75,153.35,203.73,149.1,202.67,149.1Z" fill="#231f20" data-darkreader-inline-fill="" style="--darkreader-inline-fill:#ded9d4;"></path><polygon points="250.93 241.04 249.77 248.79 300.99 248.79 300.99 242.78 250.93 241.04" fill="#231f20" data-darkreader-inline-fill="" style="--darkreader-inline-fill:#ded9d4;"></polygon><path d="M301,249.29H249.77a.49.49,0,0,1-.49-.57l1.15-7.76a.47.47,0,0,1,.51-.42L301,242.28a.5.5,0,0,1,.48.5v6A.5.5,0,0,1,301,249.29Zm-50.64-1h50.14v-5l-49.14-1.71Z" fill="#231f20" data-darkreader-inline-fill="" style="--darkreader-inline-fill:#ded9d4;"></path><path d="M92.67,80.87H67.31a.51.51,0,0,1-.5-.5.5.5,0,0,1,.5-.5H92.67a.5.5,0,0,1,.5.5A.5.5,0,0,1,92.67,80.87Z" fill="#d1d3d4" data-darkreader-inline-fill="" style="--darkreader-inline-fill:#d6d1cb;"></path><path d="M80,95.12H67.31a.5.5,0,0,1-.5-.5.51.51,0,0,1,.5-.5H80a.5.5,0,0,1,.5.5A.5.5,0,0,1,80,95.12Z" fill="#d1d3d4" data-darkreader-inline-fill="" style="--darkreader-inline-fill:#d6d1cb;"></path><path d="M335.71,210.33H318a.5.5,0,0,1-.5-.5.5.5,0,0,1,.5-.5h17.73a.5.5,0,0,1,.5.5A.5.5,0,0,1,335.71,210.33Z" fill="#d1d3d4" data-darkreader-inline-fill="" style="--darkreader-inline-fill:#d6d1cb;"></path><path d="M329.14,220.86H318a.5.5,0,0,1-.5-.5.5.5,0,0,1,.5-.5h11.16a.51.51,0,0,1,.5.5A.5.5,0,0,1,329.14,220.86Z" fill="#d1d3d4" data-darkreader-inline-fill="" style="--darkreader-inline-fill:#d6d1cb;"></path><path d="M334.27,237.62H320.91a3.44,3.44,0,0,1-3.43-3.43V232a3.44,3.44,0,0,1,3.43-3.43h13.36A3.44,3.44,0,0,1,337.7,232v2.16A3.44,3.44,0,0,1,334.27,237.62Zm-13.36-8a2.43,2.43,0,0,0-2.43,2.43v2.16a2.43,2.43,0,0,0,2.43,2.43h13.36a2.43,2.43,0,0,0,2.43-2.43V232a2.43,2.43,0,0,0-2.43-2.43Z" fill="#d1d3d4" data-darkreader-inline-fill="" style="--darkreader-inline-fill:#d6d1cb;"></path><path d="M73.65,120.31a7.75,7.75,0,1,1,7.75-7.75A7.76,7.76,0,0,1,73.65,120.31Zm0-14.5a6.75,6.75,0,1,0,6.75,6.75A6.76,6.76,0,0,0,73.65,105.81Z" fill="#d1d3d4" data-darkreader-inline-fill="" style="--darkreader-inline-fill:#d6d1cb;"></path><path d="M73.65,115.12h0a.54.54,0,0,1-.36-.21l-2.91-4a.5.5,0,0,1,.81-.59l2.57,3.51,10.16-10a.49.49,0,0,1,.7,0,.5.5,0,0,1,0,.71L74,115A.47.47,0,0,1,73.65,115.12Z" fill="#d1d3d4" data-darkreader-inline-fill="" style="--darkreader-inline-fill:#d6d1cb;"></path></g></svg>